<?xml version="1.0" encoding="utf-8" ?>
<svg baseProfile="full" height="57.5mm" version="1.1" viewBox="0,0,306.20000000000005,57.5" width="306.20000000000005mm" xmlns="http://www.w3.org/2000/svg" xmlns:ev="http://www.w3.org/2001/xml-events" xmlns:xlink="http://www.w3.org/1999/xlink"><defs /><rect fill="#FFFFFF" height="57.5" width="306.20000000000005" x="0" y="0" /><text fill="#000000" style="font-size:6px; font-family:Arial; font-weight:bold;" x="10" y="10" /><text fill="#000000" style="font-size:3px; font-family:Arial;" x="10" y="14.4">2024: 653 hours</text><text fill="#000000" style="font-size:2.5px; font-family:Arial" x="10" y="18.3">Jan</text><rect fill="#a9e6ab" height="4" rx="1" ry="1" width="4" x="10" y="19.7"><title>2024-01-01 15.43 mins</title></rect><rect fill="#a9e6ab" height="4" rx="1" ry="1" width="4" x="10" y="25.1"><title>2024-01-02 12.9 mins</title></rect><rect fill="#abe6ad" height="4" rx="1" ry="1" width="4" x="10" y="30.5"><title>2024-01-03 6.67 mins</title></rect><rect fill="#a3e3a5" height="4" rx="1" ry="1" width="4" x="10" y="35.9"><title>2024-01-04 45.4 mins</title></rect><rect fill="#a4e3a6" height="4" rx="1" ry="1" width="4" x="10" y="41.300000000000004"><title>2024-01-05 39.77 mins</title></rect><rect fill="#a7e5a9" height="4" rx="1" ry="1" width="4" x="10" y="46.699999999999996"><title>2024-01-06 23.43 mins</title></rect><rect fill="#62b966" height="4" rx="1" ry="1" width="4" x="10" y="52.1"><title>2024-01-07 153.38 mins</title></rect><rect fill="#64bb68" height="4" rx="1" ry="1" width="4" x="15.4" y="19.7"><title>2024-01-08 110.98 mins</title></rect><rect fill="#65bd69" height="4" rx="1" ry="1" width="4" x="15.4" y="25.1"><title>2024-01-09 88.68 mins</title></rect><rect fill="#64bc69" height="4" rx="1" ry="1" width="4" x="15.4" y="30.5"><title>2024-01-10 94.3 mins</title></rect><rect fill="#66be6a" height="4" rx="1" ry="1" width="4" x="15.4" y="35.9"><title>2024-01-11 67.73 mins</title></rect><rect fill="#64bc69" height="4" rx="1" ry="1" width="4" x="15.4" y="41.300000000000004"><title>2024-01-12 96.65 mins</title></rect><rect fill="#61b966" height="4" rx="1" ry="1" width="4" x="15.4" y="46.699999999999996"><title>2024-01-13 155.12 mins</title></rect><rect fill="#aae6ac" height="4" rx="1" ry="1" width="4" x="15.4" y="52.1"><title>2024-01-14 10.98 mins</title></rect><rect fill="#64bc69" height="4" rx="1" ry="1" width="4" x="20.8" y="19.7"><title>2024-01-15 94.03 mins</title></rect><rect fill="#a0e1a2" height="4" rx="1" ry="1" width="4" x="20.8" y="25.1"><title>2024-01-16 59.8 mins</title></rect><rect fill="#66be6b" height="4" rx="1" ry="1" width="4" x="20.8" y="30.5"><title>2024-01-17 62.9 mins</title></rect><rect fill="#a1e2a3" height="4" rx="1" ry="1" width="4" x="20.8" y="35.9"><title>2024-01-18 56.32 mins</title></rect><rect fill="#a6e4a8" height="4" rx="1" ry="1" width="4" x="20.8" y="41.300000000000004"><title>2024-01-19 31.08 mins</title></rect><rect fill="#549F57" height="4" rx="1" ry="1" width="4" x="20.8" y="46.699999999999996"><title>2024-01-20 507.5 mins</title></rect><rect fill="#549F57" height="4" rx="1" ry="1" width="4" x="20.8" y="52.1"><title>2024-01-21 308.02 mins</title></rect><rect fill="#a1e2a3" height="4" rx="1" ry="1" width="4" x="26.200000000000003" y="19.7"><title>2024-01-22 58.15 mins</title></rect><rect fill="#64bc69" height="4" rx="1" ry="1" width="4" x="26.200000000000003" y="25.1"><title>2024-01-23 104.9 mins</title></rect><rect fill="#549F57" height="4" rx="1" ry="1" width="4" x="26.200000000000003" y="30.5"><title>2024-01-24 205.47 mins</title></rect><rect fill="#549F57" height="4" rx="1" ry="1" width="4" x="26.200000000000003" y="35.9"><title>2024-01-25 164.15 mins</title></rect><rect fill="#62b966" height="4" rx="1" ry="1" width="4" x="26.200000000000003" y="41.300000000000004"><title>2024-01-26 148.15 mins</title></rect><rect fill="#a5e4a7" height="4" rx="1" ry="1" width="4" x="26.200000000000003" y="46.699999999999996"><title>2024-01-27 33.63 mins</title></rect><rect fill="#549F57" height="4" rx="1" ry="1" width="4" x="26.200000000000003" y="52.1"><title>2024-01-28 288.73 mins</title></rect><rect fill="#549F57" height="4" rx="1" ry="1" width="4" x="31.6" y="19.7"><title>2024-01-29 250.28 mins</title></rect><rect fill="#64bb68" height="4" rx="1" ry="1" width="4" x="31.6" y="25.1"><title>2024-01-30 109.18 mins</title></rect><rect fill="#62ba67" height="4" rx="1" ry="1" width="4" x="31.6" y="30.5"><title>2024-01-31 135.53 mins</title></rect><rect fill="#549F57" height="4" rx="1" ry="1" width="4" x="31.6" y="35.9"><title>2024-02-01 219.75 mins</title></rect><rect fill="#549F57" height="4" rx="1" ry="1" width="4" x="31.6" y="41.300000000000004"><title>2024-02-02 192.42 mins</title></rect><rect fill="#62ba67" height="4" rx="1" ry="1" width="4" x="31.6" y="46.699999999999996"><title>2024-02-03 134.65 mins</title></rect><rect fill="#63ba67" height="4" rx="1" ry="1" width="4" x="31.6" y="52.1"><title>2024-02-04 131.27 mins</title></rect><text fill="#000000" style="font-size:2.5px; font-family:Arial" x="37.0" y="18.3">Feb</text><rect fill="#64bc69" height="4" rx="1" ry="1" width="4" x="37.0" y="19.7"><title>2024-02-05 94.4 mins</title></rect><rect fill="#549F57" height="4" rx="1" ry="1" width="4" x="37.0" y="25.1"><title>2024-02-06 214.85 mins</title></rect><rect fill="#a2e2a4" height="4" rx="1" ry="1" width="4" x="37.0" y="30.5"><title>2024-02-07 52.43 mins</title></rect><rect fill="#abe6ad" height="4" rx="1" ry="1" width="4" x="37.0" y="35.9"><title>2024-02-08 5.72 mins</title></rect><rect fill="#a8e5aa" height="4" rx="1" ry="1" width="4" x="37.0" y="41.300000000000004"><title>2024-02-09 20.65 mins</title></rect><rect fill="#63bb68" height="4" rx="1" ry="1" width="4" x="37.0" y="46.699999999999996"><title>2024-02-10 124.42 mins</title></rect><rect fill="#549F57" height="4" rx="1" ry="1" width="4" x="37.0" y="52.1"><title>2024-02-11 350.75 mins</title></rect><rect fill="#64bc68" height="4" rx="1" ry="1" width="4" x="42.4" y="19.7"><title>2024-02-12 107.53 mins</title></rect><rect fill="#a5e4a7" height="4" rx="1" ry="1" width="4" x="42.4" y="25.1"><title>2024-02-13 34.2 mins</title></rect><rect fill="#62ba67" height="4" rx="1" ry="1" width="4" x="42.4" y="30.5"><title>2024-02-14 145.1 mins</title></rect><rect fill="#549F57" height="4" rx="1" ry="1" width="4" x="42.4" y="35.9"><title>2024-02-15 203.67 mins</title></rect><rect fill="#549F57" height="4" rx="1" ry="1" width="4" x="42.4" y="41.300000000000004"><title>2024-02-16 234.3 mins</title></rect><rect fill="#549F57" height="4" rx="1" ry="1" width="4" x="42.4" y="46.699999999999996"><title>2024-02-17 219.78 mins</title></rect><rect fill="#549F57" height="4" rx="1" ry="1" width="4" x="42.4" y="52.1"><title>2024-02-18 329.95 mins</title></rect><rect fill="#549F57" height="4" rx="1" ry="1" width="4" x="47.8" y="19.7"><title>2024-02-19 264.72 mins</title></rect><rect fill="#549F57" height="4" rx="1" ry="1" width="4" x="47.8" y="25.1"><title>2024-02-20 198.32 mins</title></rect><rect fill="#62ba67" height="4" rx="1" ry="1" width="4" x="47.8" y="30.5"><title>2024-02-21 136.88 mins</title></rect><rect fill="#549F57" height="4" rx="1" ry="1" width="4" x="47.8" y="35.9"><title>2024-02-22 175.9 mins</title></rect><rect fill="#549F57" height="4" rx="1" ry="1" width="4" x="47.8" y="41.300000000000004"><title>2024-02-23 301.03 mins</title></rect><rect fill="#65bd6a" height="4" rx="1" ry="1" width="4" x="47.8" y="46.699999999999996"><title>2024-02-24 74.63 mins</title></rect><rect fill="#66be6b" height="4" rx="1" ry="1" width="4" x="47.8" y="52.1"><title>2024-02-25 66.15 mins</title></rect><rect fill="#549F57" height="4" rx="1" ry="1" width="4" x="53.199999999999996" y="19.7"><title>2024-02-26 311.37 mins</title></rect><rect fill="#549F57" height="4" rx="1" ry="1" width="4" x="53.199999999999996" y="25.1"><title>2024-02-27 282.32 mins</title></rect><rect fill="#549F57" height="4" rx="1" ry="1" width="4" x="53.199999999999996" y="30.5"><title>2024-02-28 220.28 mins</title></rect><rect fill="#549F57" height="4" rx="1" ry="1" width="4" x="53.199999999999996" y="35.9"><title>2024-02-29 230.88 mins</title></rect><rect fill="#549F57" height="4" rx="1" ry="1" width="4" x="53.199999999999996" y="41.300000000000004"><title>2024-03-01 327.52 mins</title></rect><rect fill="#549F57" height="4" rx="1" ry="1" width="4" x="53.199999999999996" y="46.699999999999996"><title>2024-03-02 170.57 mins</title></rect><rect fill="#549F57" height="4" rx="1" ry="1" width="4" x="53.199999999999996" y="52.1"><title>2024-03-03 228.53 mins</title></rect><text fill="#000000" style="font-size:2.5px; font-family:Arial" x="58.599999999999994" y="18.3">Mar</text><rect fill="#549F57" height="4" rx="1" ry="1" width="4" x="58.599999999999994" y="19.7"><title>2024-03-04 384.33 mins</title></rect><rect fill="#549F57" height="4" rx="1" ry="1" width="4" x="58.599999999999994" y="25.1"><title>2024-03-05 267.8 mins</title></rect><rect fill="#61b966" height="4" rx="1" ry="1" width="4" x="58.599999999999994" y="30.5"><title>2024-03-06 157.18 mins</title></rect><rect fill="#549F57" height="4" rx="1" ry="1" width="4" x="58.599999999999994" y="35.9"><title>2024-03-07 223.58 mins</title></rect><rect fill="#64bb68" height="4" rx="1" ry="1" width="4" x="58.599999999999994" y="41.300000000000004"><title>2024-03-08 112.18 mins</title></rect><rect fill="#549F57" height="4" rx="1" ry="1" width="4" x="58.599999999999994" y="46.699999999999996"><title>2024-03-09 169.5 mins</title></rect><rect fill="#a1e2a3" height="4" rx="1" ry="1" width="4" x="58.599999999999994" y="52.1"><title>2024-03-10 54.82 mins</title></rect><rect fill="#61b966" height="4" rx="1" ry="1" width="4" x="63.99999999999999" y="19.7"><title>2024-03-11 155.57 mins</title></rect><rect fill="#549F57" height="4" rx="1" ry="1" width="4" x="63.99999999999999" y="25.1"><title>2024-03-12 178.72 mins</title></rect><rect fill="#549F57" height="4" rx="1" ry="1" width="4" x="63.99999999999999" y="30.5"><title>2024-03-13 187.13 mins</title></rect><rect fill="#65bd6a" height="4" rx="1" ry="1" width="4" x="63.99999999999999" y="35.9"><title>2024-03-14 76.73 mins</title></rect><rect fill="#549F57" height="4" rx="1" ry="1" width="4" x="63.99999999999999" y="41.300000000000004"><title>2024-03-15 174.58 mins</title></rect><rect fill="#549F57" height="4" rx="1" ry="1" width="4" x="63.99999999999999" y="46.699999999999996"><title>2024-03-16 216.12 mins</title></rect><rect fill="#63bb68" height="4" rx="1" ry="1" width="4" x="63.99999999999999" y="52.1"><title>2024-03-17 122.58 mins</title></rect><rect fill="#549F57" height="4" rx="1" ry="1" width="4" x="69.39999999999999" y="19.7"><title>2024-03-18 167.17 mins</title></rect><rect fill="#549F57" height="4" rx="1" ry="1" width="4" x="69.39999999999999" y="25.1"><title>2024-03-19 192.15 mins</title></rect><rect fill="#a3e3a6" height="4" rx="1" ry="1" width="4" x="69.39999999999999" y="30.5"><title>2024-03-20 43.45 mins</title></rect><rect fill="#549F57" height="4" rx="1" ry="1" width="4" x="69.39999999999999" y="35.9"><title>2024-03-21 309.72 mins</title></rect><rect fill="#549F57" height="4" rx="1" ry="1" width="4" x="69.39999999999999" y="41.300000000000004"><title>2024-03-22 309.62 mins</title></rect><rect fill="#a8e5aa" height="4" rx="1" ry="1" width="4" x="69.39999999999999" y="46.699999999999996"><title>2024-03-23 19.17 mins</title></rect><rect fill="#a5e4a7" height="4" rx="1" ry="1" width="4" x="69.39999999999999" y="52.1"><title>2024-03-24 34.42 mins</title></rect><rect fill="#549F57" height="4" rx="1" ry="1" width="4" x="74.8" y="19.7"><title>2024-03-25 234.45 mins</title></rect><rect fill="#64bc68" height="4" rx="1" ry="1" width="4" x="74.8" y="25.1"><title>2024-03-26 107.87 mins</title></rect><rect fill="#65bd6a" height="4" rx="1" ry="1" width="4" x="74.8" y="30.5"><title>2024-03-27 84.42 mins</title></rect><rect fill="#aae6ac" height="4" rx="1" ry="1" width="4" x="74.8" y="35.9"><title>2024-03-28 11.42 mins</title></rect><rect fill="#a0e2a3" height="4" rx="1" ry="1" width="4" x="74.8" y="41.300000000000004"><title>2024-03-29 58.7 mins</title></rect><rect fill="#66be6b" height="4" rx="1" ry="1" width="4" x="74.8" y="46.699999999999996"><title>2024-03-30 63.47 mins</title></rect><rect fill="#a6e4a8" height="4" rx="1" ry="1" width="4" x="74.8" y="52.1"><title>2024-03-31 31.75 mins</title></rect><text fill="#000000" style="font-size:2.5px; font-family:Arial" x="80.2" y="18.3">Apr</text><rect fill="#66be6b" height="4" rx="1" ry="1" width="4" x="80.2" y="19.7"><title>2024-04-01 62.85 mins</title></rect><rect fill="#549F57" height="4" rx="1" ry="1" width="4" x="80.2" y="25.1"><title>2024-04-02 229.88 mins</title></rect><rect fill="#64bb68" height="4" rx="1" ry="1" width="4" x="80.2" y="30.5"><title>2024-04-03 111.55 mins</title></rect><rect fill="#62ba67" height="4" rx="1" ry="1" width="4" x="80.2" y="35.9"><title>2024-04-04 137.98 mins</title></rect><rect fill="#a4e3a6" height="4" rx="1" ry="1" width="4" x="80.2" y="41.300000000000004"><title>2024-04-05 39.97 mins</title></rect><rect fill="#a3e3a5" height="4" rx="1" ry="1" width="4" x="80.2" y="46.699999999999996"><title>2024-04-06 46.57 mins</title></rect><rect fill="#63bb68" height="4" rx="1" ry="1" width="4" x="80.2" y="52.1"><title>2024-04-07 115.75 mins</title></rect><rect fill="#549F57" height="4" rx="1" ry="1" width="4" x="85.60000000000001" y="19.7"><title>2024-04-08 170.88 mins</title></rect><rect fill="#a5e4a8" height="4" rx="1" ry="1" width="4" x="85.60000000000001" y="25.1"><title>2024-04-09 33.28 mins</title></rect><rect fill="#a8e5aa" height="4" rx="1" ry="1" width="4" x="85.60000000000001" y="30.5"><title>2024-04-10 20.53 mins</title></rect><rect fill="#a2e3a5" height="4" rx="1" ry="1" width="4" x="85.60000000000001" y="35.9"><title>2024-04-11 48.23 mins</title></rect><rect fill="#62ba67" height="4" rx="1" ry="1" width="4" x="85.60000000000001" y="41.300000000000004"><title>2024-04-12 139.75 mins</title></rect><rect fill="#a9e5ab" height="4" rx="1" ry="1" width="4" x="85.60000000000001" y="46.699999999999996"><title>2024-04-13 17.32 mins</title></rect><rect fill="#a2e3a5" height="4" rx="1" ry="1" width="4" x="85.60000000000001" y="52.1"><title>2024-04-14 48.98 mins</title></rect><rect fill="#62ba67" height="4" rx="1" ry="1" width="4" x="91.00000000000001" y="19.7"><title>2024-04-15 139.13 mins</title></rect><rect fill="#549F57" height="4" rx="1" ry="1" width="4" x="91.00000000000001" y="25.1"><title>2024-04-16 232.0 mins</title></rect><rect fill="#549F57" height="4" rx="1" ry="1" width="4" x="91.00000000000001" y="30.5"><title>2024-04-17 204.68 mins</title></rect><rect fill="#64bc69" height="4" rx="1" ry="1" width="4" x="91.00000000000001" y="35.9"><title>2024-04-18 100.03 mins</title></rect><rect fill="#a1e2a3" height="4" rx="1" ry="1" width="4" x="91.00000000000001" y="41.300000000000004"><title>2024-04-19 55.67 mins</title></rect><rect fill="#a3e3a6" height="4" rx="1" ry="1" width="4" x="91.00000000000001" y="46.699999999999996"><title>2024-04-20 43.55 mins</title></rect><rect fill="#65bd6a" height="4" rx="1" ry="1" width="4" x="91.00000000000001" y="52.1"><title>2024-04-21 82.0 mins</title></rect><rect fill="#63bb68" height="4" rx="1" ry="1" width="4" x="96.40000000000002" y="19.7"><title>2024-04-22 123.0 mins</title></rect><rect fill="#549F57" height="4" rx="1" ry="1" width="4" x="96.40000000000002" y="25.1"><title>2024-04-23 178.93 mins</title></rect><rect fill="#549F57" height="4" rx="1" ry="1" width="4" x="96.40000000000002" y="30.5"><title>2024-04-24 164.87 mins</title></rect><rect fill="#a0e1a2" height="4" rx="1" ry="1" width="4" x="96.40000000000002" y="35.9"><title>2024-04-25 61.88 mins</title></rect><rect fill="#62ba67" height="4" rx="1" ry="1" width="4" x="96.40000000000002" y="41.300000000000004"><title>2024-04-26 134.6 mins</title></rect><rect fill="#65bd69" height="4" rx="1" ry="1" width="4" x="96.40000000000002" y="46.699999999999996"><title>2024-04-27 88.33 mins</title></rect><rect fill="#61b966" height="4" rx="1" ry="1" width="4" x="96.40000000000002" y="52.1"><title>2024-04-28 154.62 mins</title></rect><rect fill="#549F57" height="4" rx="1" ry="1" width="4" x="101.80000000000003" y="19.7"><title>2024-04-29 183.97 mins</title></rect><rect fill="#64bc69" height="4" rx="1" ry="1" width="4" x="101.80000000000003" y="25.1"><title>2024-04-30 92.98 mins</title></rect><rect fill="#a1e2a3" height="4" rx="1" ry="1" width="4" x="101.80000000000003" y="30.5"><title>2024-05-01 56.88 mins</title></rect><rect fill="#549F57" height="4" rx="1" ry="1" width="4" x="101.80000000000003" y="35.9"><title>2024-05-02 185.67 mins</title></rect><rect fill="#549F57" height="4" rx="1" ry="1" width="4" x="101.80000000000003" y="41.300000000000004"><title>2024-05-03 518.75 mins</title></rect><rect fill="#549F57" height="4" rx="1" ry="1" width="4" x="101.80000000000003" y="46.699999999999996"><title>2024-05-04 343.45 mins</title></rect><rect fill="#549F57" height="4" rx="1" ry="1" width="4" x="101.80000000000003" y="52.1"><title>2024-05-05 165.82 mins</title></rect><text fill="#000000" style="font-size:2.5px; font-family:Arial" x="107.20000000000003" y="18.3">May</text><rect fill="#549F57" height="4" rx="1" ry="1" width="4" x="107.20000000000003" y="19.7"><title>2024-05-06 232.57 mins</title></rect><rect fill="#549F57" height="4" rx="1" ry="1" width="4" x="107.20000000000003" y="25.1"><title>2024-05-07 159.3 mins</title></rect><rect fill="#64bc69" height="4" rx="1" ry="1" width="4" x="107.20000000000003" y="30.5"><title>2024-05-08 101.82 mins</title></rect><rect fill="#62b966" height="4" rx="1" ry="1" width="4" x="107.20000000000003" y="35.9"><title>2024-05-09 147.65 mins</title></rect><rect fill="#a3e3a5" height="4" rx="1" ry="1" width="4" x="107.20000000000003" y="41.300000000000004"><title>2024-05-10 47.3 mins</title></rect><rect fill="#549F57" height="4" rx="1" ry="1" width="4" x="107.20000000000003" y="46.699999999999996"><title>2024-05-11 158.93 mins</title></rect><rect fill="#549F57" height="4" rx="1" ry="1" width="4" x="107.20000000000003" y="52.1"><title>2024-05-12 186.37 mins</title></rect><rect fill="#549F57" height="4" rx="1" ry="1" width="4" x="112.60000000000004" y="19.7"><title>2024-05-13 295.05 mins</title></rect><rect fill="#549F57" height="4" rx="1" ry="1" width="4" x="112.60000000000004" y="25.1"><title>2024-05-14 204.05 mins</title></rect><rect fill="#549F57" height="4" rx="1" ry="1" width="4" x="112.60000000000004" y="30.5"><title>2024-05-15 255.12 mins</title></rect><rect fill="#549F57" height="4" rx="1" ry="1" width="4" x="112.60000000000004" y="35.9"><title>2024-05-16 285.48 mins</title></rect><rect fill="#65bd6a" height="4" rx="1" ry="1" width="4" x="112.60000000000004" y="41.300000000000004"><title>2024-05-17 85.95 mins</title></rect><rect fill="#65bd6a" height="4" rx="1" ry="1" width="4" x="112.60000000000004" y="46.699999999999996"><title>2024-05-18 77.87 mins</title></rect><rect fill="#64bc69" height="4" rx="1" ry="1" width="4" x="112.60000000000004" y="52.1"><title>2024-05-19 91.82 mins</title></rect><rect fill="#63bb68" height="4" rx="1" ry="1" width="4" x="118.00000000000004" y="19.7"><title>2024-05-20 118.35 mins</title></rect><rect fill="#549F57" height="4" rx="1" ry="1" width="4" x="118.00000000000004" y="25.1"><title>2024-05-21 172.5 mins</title></rect><rect fill="#64bc69" height="4" rx="1" ry="1" width="4" x="118.00000000000004" y="30.5"><title>2024-05-22 100.18 mins</title></rect><rect fill="#549F57" height="4" rx="1" ry="1" width="4" x="118.00000000000004" y="35.9"><title>2024-05-23 461.8 mins</title></rect><rect fill="#549F57" height="4" rx="1" ry="1" width="4" x="118.00000000000004" y="41.300000000000004"><title>2024-05-24 344.78 mins</title></rect><rect fill="#63ba67" height="4" rx="1" ry="1" width="4" x="118.00000000000004" y="46.699999999999996"><title>2024-05-25 129.52 mins</title></rect><rect fill="#549F57" height="4" rx="1" ry="1" width="4" x="118.00000000000004" y="52.1"><title>2024-05-26 211.62 mins</title></rect><rect fill="#549F57" height="4" rx="1" ry="1" width="4" x="123.40000000000005" y="19.7"><title>2024-05-27 197.15 mins</title></rect><rect fill="#549F57" height="4" rx="1" ry="1" width="4" x="123.40000000000005" y="25.1"><title>2024-05-28 195.1 mins</title></rect><rect fill="#61b966" height="4" rx="1" ry="1" width="4" x="123.40000000000005" y="30.5"><title>2024-05-29 155.43 mins</title></rect><rect fill="#66bd6a" height="4" rx="1" ry="1" width="4" x="123.40000000000005" y="35.9"><title>2024-05-30 70.03 mins</title></rect><rect fill="#549F57" height="4" rx="1" ry="1" width="4" x="123.40000000000005" y="41.300000000000004"><title>2024-05-31 188.02 mins</title></rect><rect fill="#a1e2a3" height="4" rx="1" ry="1" width="4" x="123.40000000000005" y="46.699999999999996"><title>2024-06-01 56.18 mins</title></rect><rect fill="#a5e4a8" height="4" rx="1" ry="1" width="4" x="123.40000000000005" y="52.1"><title>2024-06-02 32.67 mins</title></rect><text fill="#000000" style="font-size:2.5px; font-family:Arial" x="128.80000000000004" y="18.3">Jun</text><rect fill="#549F57" height="4" rx="1" ry="1" width="4" x="128.80000000000004" y="19.7"><title>2024-06-03 230.17 mins</title></rect><rect fill="#549F57" height="4" rx="1" ry="1" width="4" x="128.80000000000004" y="25.1"><title>2024-06-04 225.5 mins</title></rect><rect fill="#549F57" height="4" rx="1" ry="1" width="4" x="128.80000000000004" y="30.5"><title>2024-06-05 177.03 mins</title></rect><rect fill="#63bb68" height="4" rx="1" ry="1" width="4" x="128.80000000000004" y="35.9"><title>2024-06-06 118.53 mins</title></rect><rect fill="#63bb68" height="4" rx="1" ry="1" width="4" x="128.80000000000004" y="41.300000000000004"><title>2024-06-07 125.53 mins</title></rect><rect fill="#a4e4a7" height="4" rx="1" ry="1" width="4" x="128.80000000000004" y="46.699999999999996"><title>2024-06-08 37.98 mins</title></rect><rect fill="#aae6ac" height="4" rx="1" ry="1" width="4" x="128.80000000000004" y="52.1"><title>2024-06-09 7.82 mins</title></rect><rect fill="#a2e2a4" height="4" rx="1" ry="1" width="4" x="134.20000000000005" y="19.7"><title>2024-06-10 49.73 mins</title></rect><rect fill="#549F57" height="4" rx="1" ry="1" width="4" x="134.20000000000005" y="25.1"><title>2024-06-11 175.13 mins</title></rect><rect fill="#549F57" height="4" rx="1" ry="1" width="4" x="134.20000000000005" y="30.5"><title>2024-06-12 286.52 mins</title></rect><rect fill="#63bb68" height="4" rx="1" ry="1" width="4" x="134.20000000000005" y="35.9"><title>2024-06-13 122.7 mins</title></rect><rect fill="#64bc69" height="4" rx="1" ry="1" width="4" x="134.20000000000005" y="41.300000000000004"><title>2024-06-14 93.3 mins</title></rect><rect fill="#549F57" height="4" rx="1" ry="1" width="4" x="134.20000000000005" y="46.699999999999996"><title>2024-06-15 222.55 mins</title></rect><rect fill="#63bb68" height="4" rx="1" ry="1" width="4" x="134.20000000000005" y="52.1"><title>2024-06-16 123.98 mins</title></rect><rect fill="#62b966" height="4" rx="1" ry="1" width="4" x="139.60000000000005" y="19.7"><title>2024-06-17 149.83 mins</title></rect><rect fill="#65bd6a" height="4" rx="1" ry="1" width="4" x="139.60000000000005" y="25.1"><title>2024-06-18 84.32 mins</title></rect><rect fill="#549F57" height="4" rx="1" ry="1" width="4" x="139.60000000000005" y="30.5"><title>2024-06-19 158.38 mins</title></rect><rect fill="#61b966" height="4" rx="1" ry="1" width="4" x="139.60000000000005" y="35.9"><title>2024-06-20 155.77 mins</title></rect><rect fill="#549F57" height="4" rx="1" ry="1" width="4" x="139.60000000000005" y="41.300000000000004"><title>2024-06-21 246.58 mins</title></rect><rect fill="#a2e2a4" height="4" rx="1" ry="1" width="4" x="139.60000000000005" y="46.699999999999996"><title>2024-06-22 52.33 mins</title></rect><rect fill="#65bc69" height="4" rx="1" ry="1" width="4" x="139.60000000000005" y="52.1"><title>2024-06-23 89.77 mins</title></rect><rect fill="#549F57" height="4" rx="1" ry="1" width="4" x="145.00000000000006" y="19.7"><title>2024-06-24 174.17 mins</title></rect><rect fill="#549F57" height="4" rx="1" ry="1" width="4" x="145.00000000000006" y="25.1"><title>2024-06-25 159.25 mins</title></rect><rect fill="#549F57" height="4" rx="1" ry="1" width="4" x="145.00000000000006" y="30.5"><title>2024-06-26 166.33 mins</title></rect><rect fill="#64bc69" height="4" rx="1" ry="1" width="4" x="145.00000000000006" y="35.9"><title>2024-06-27 94.07 mins</title></rect><rect fill="#64bc69" height="4" rx="1" ry="1" width="4" x="145.00000000000006" y="41.300000000000004"><title>2024-06-28 95.57 mins</title></rect><rect fill="#66be6b" height="4" rx="1" ry="1" width="4" x="145.00000000000006" y="46.699999999999996"><title>2024-06-29 63.08 mins</title></rect><rect fill="#a3e3a5" height="4" rx="1" ry="1" width="4" x="145.00000000000006" y="52.1"><title>2024-06-30 45.42 mins</title></rect><text fill="#000000" style="font-size:2.5px; font-family:Arial" x="150.40000000000006" y="18.3">Jul</text><rect fill="#549F57" height="4" rx="1" ry="1" width="4" x="150.40000000000006" y="19.7"><title>2024-07-01 233.12 mins</title></rect><rect fill="#549F57" height="4" rx="1" ry="1" width="4" x="150.40000000000006" y="25.1"><title>2024-07-02 197.72 mins</title></rect><rect fill="#549F57" height="4" rx="1" ry="1" width="4" x="150.40000000000006" y="30.5"><title>2024-07-03 332.45 mins</title></rect><rect fill="#549F57" height="4" rx="1" ry="1" width="4" x="150.40000000000006" y="35.9"><title>2024-07-04 323.27 mins</title></rect><rect fill="#549F57" height="4" rx="1" ry="1" width="4" x="150.40000000000006" y="41.300000000000004"><title>2024-07-05 195.2 mins</title></rect><rect fill="#549F57" height="4" rx="1" ry="1" width="4" x="150.40000000000006" y="46.699999999999996"><title>2024-07-06 170.6 mins</title></rect><rect fill="#549F57" height="4" rx="1" ry="1" width="4" x="150.40000000000006" y="52.1"><title>2024-07-07 169.98 mins</title></rect><rect fill="#a1e2a3" height="4" rx="1" ry="1" width="4" x="155.80000000000007" y="19.7"><title>2024-07-08 54.35 mins</title></rect><rect fill="#65bc69" height="4" rx="1" ry="1" width="4" x="155.80000000000007" y="25.1"><title>2024-07-09 89.33 mins</title></rect><rect fill="#63bb68" height="4" rx="1" ry="1" width="4" x="155.80000000000007" y="30.5"><title>2024-07-10 120.77 mins</title></rect><rect fill="#549F57" height="4" rx="1" ry="1" width="4" x="155.80000000000007" y="35.9"><title>2024-07-11 366.37 mins</title></rect><rect fill="#549F57" height="4" rx="1" ry="1" width="4" x="155.80000000000007" y="41.300000000000004"><title>2024-07-12 284.02 mins</title></rect><rect fill="#549F57" height="4" rx="1" ry="1" width="4" x="155.80000000000007" y="46.699999999999996"><title>2024-07-13 241.72 mins</title></rect><rect fill="#549F57" height="4" rx="1" ry="1" width="4" x="155.80000000000007" y="52.1"><title>2024-07-14 332.92 mins</title></rect><rect fill="#549F57" height="4" rx="1" ry="1" width="4" x="161.20000000000007" y="19.7"><title>2024-07-15 172.82 mins</title></rect><rect fill="#61b966" height="4" rx="1" ry="1" width="4" x="161.20000000000007" y="25.1"><title>2024-07-16 154.9 mins</title></rect><rect fill="#549F57" height="4" rx="1" ry="1" width="4" x="161.20000000000007" y="30.5"><title>2024-07-17 251.62 mins</title></rect><rect fill="#549F57" height="4" rx="1" ry="1" width="4" x="161.20000000000007" y="35.9"><title>2024-07-18 172.48 mins</title></rect><rect fill="#62ba67" height="4" rx="1" ry="1" width="4" x="161.20000000000007" y="41.300000000000004"><title>2024-07-19 142.4 mins</title></rect><rect fill="#549F57" height="4" rx="1" ry="1" width="4" x="161.20000000000007" y="46.699999999999996"><title>2024-07-20 246.97 mins</title></rect><rect fill="#63bb67" height="4" rx="1" ry="1" width="4" x="161.20000000000007" y="52.1"><title>2024-07-21 127.03 mins</title></rect><rect fill="#549F57" height="4" rx="1" ry="1" width="4" x="166.60000000000008" y="19.7"><title>2024-07-22 165.87 mins</title></rect><rect fill="#549F57" height="4" rx="1" ry="1" width="4" x="166.60000000000008" y="25.1"><title>2024-07-23 246.38 mins</title></rect><rect fill="#549F57" height="4" rx="1" ry="1" width="4" x="166.60000000000008" y="30.5"><title>2024-07-24 191.17 mins</title></rect><rect fill="#549F57" height="4" rx="1" ry="1" width="4" x="166.60000000000008" y="35.9"><title>2024-07-25 207.2 mins</title></rect><rect fill="#64bc69" height="4" rx="1" ry="1" width="4" x="166.60000000000008" y="41.300000000000004"><title>2024-07-26 105.92 mins</title></rect><rect fill="#62b966" height="4" rx="1" ry="1" width="4" x="166.60000000000008" y="46.699999999999996"><title>2024-07-27 149.73 mins</title></rect><rect fill="#64bc69" height="4" rx="1" ry="1" width="4" x="166.60000000000008" y="52.1"><title>2024-07-28 98.15 mins</title></rect><rect fill="#549F57" height="4" rx="1" ry="1" width="4" x="172.00000000000009" y="19.7"><title>2024-07-29 181.03 mins</title></rect><rect fill="#549F57" height="4" rx="1" ry="1" width="4" x="172.00000000000009" y="25.1"><title>2024-07-30 185.8 mins</title></rect><rect fill="#a2e2a4" height="4" rx="1" ry="1" width="4" x="172.00000000000009" y="30.5"><title>2024-07-31 52.52 mins</title></rect><rect fill="#a3e3a5" height="4" rx="1" ry="1" width="4" x="172.00000000000009" y="35.9"><title>2024-08-01 43.85 mins</title></rect><rect fill="#66be6a" height="4" rx="1" ry="1" width="4" x="172.00000000000009" y="41.300000000000004"><title>2024-08-02 68.65 mins</title></rect><rect fill="#549F57" height="4" rx="1" ry="1" width="4" x="172.00000000000009" y="46.699999999999996"><title>2024-08-03 165.58 mins</title></rect><rect fill="#549F57" height="4" rx="1" ry="1" width="4" x="172.00000000000009" y="52.1"><title>2024-08-04 345.47 mins</title></rect><text fill="#000000" style="font-size:2.5px; font-family:Arial" x="177.4000000000001" y="18.3">Aug</text><rect fill="#64bc69" height="4" rx="1" ry="1" width="4" x="177.4000000000001" y="19.7"><title>2024-08-05 96.28 mins</title></rect><rect fill="#549F57" height="4" rx="1" ry="1" width="4" x="177.4000000000001" y="25.1"><title>2024-08-06 163.18 mins</title></rect><rect fill="#64bc69" height="4" rx="1" ry="1" width="4" x="177.4000000000001" y="30.5"><title>2024-08-07 95.1 mins</title></rect><rect fill="#64bc69" height="4" rx="1" ry="1" width="4" x="177.4000000000001" y="35.9"><title>2024-08-08 97.7 mins</title></rect><rect fill="#a2e2a4" height="4" rx="1" ry="1" width="4" x="177.4000000000001" y="41.300000000000004"><title>2024-08-09 52.0 mins</title></rect><rect fill="#549F57" height="4" rx="1" ry="1" width="4" x="177.4000000000001" y="46.699999999999996"><title>2024-08-10 175.13 mins</title></rect><rect fill="#549F57" height="4" rx="1" ry="1" width="4" x="177.4000000000001" y="52.1"><title>2024-08-11 207.02 mins</title></rect><rect fill="#66be6b" height="4" rx="1" ry="1" width="4" x="182.8000000000001" y="19.7"><title>2024-08-12 67.13 mins</title></rect><rect fill="#64bc68" height="4" rx="1" ry="1" width="4" x="182.8000000000001" y="25.1"><title>2024-08-13 107.55 mins</title></rect><rect fill="#66be6a" height="4" rx="1" ry="1" width="4" x="182.8000000000001" y="30.5"><title>2024-08-14 68.1 mins</title></rect><rect fill="#65bd6a" height="4" rx="1" ry="1" width="4" x="182.8000000000001" y="35.9"><title>2024-08-15 78.9 mins</title></rect><rect fill="#a0e2a3" height="4" rx="1" ry="1" width="4" x="182.8000000000001" y="41.300000000000004"><title>2024-08-16 59.17 mins</title></rect><rect fill="#a3e3a5" height="4" rx="1" ry="1" width="4" x="182.8000000000001" y="46.699999999999996"><title>2024-08-17 44.1 mins</title></rect><rect fill="#549F57" height="4" rx="1" ry="1" width="4" x="182.8000000000001" y="52.1"><title>2024-08-18 196.23 mins</title></rect><rect fill="#63bb68" height="4" rx="1" ry="1" width="4" x="188.2000000000001" y="19.7"><title>2024-08-19 123.28 mins</title></rect><rect fill="#a2e3a5" height="4" rx="1" ry="1" width="4" x="188.2000000000001" y="25.1"><title>2024-08-20 48.85 mins</title></rect><rect fill="#a9e6ab" height="4" rx="1" ry="1" width="4" x="188.2000000000001" y="30.5"><title>2024-08-21 13.7 mins</title></rect><rect fill="#aae6ac" height="4" rx="1" ry="1" width="4" x="188.2000000000001" y="35.9"><title>2024-08-22 11.57 mins</title></rect><rect fill="#65bd6a" height="4" rx="1" ry="1" width="4" x="188.2000000000001" y="41.300000000000004"><title>2024-08-23 76.15 mins</title></rect><rect fill="#549F57" height="4" rx="1" ry="1" width="4" x="188.2000000000001" y="46.699999999999996"><title>2024-08-24 198.17 mins</title></rect><rect fill="#62ba66" height="4" rx="1" ry="1" width="4" x="188.2000000000001" y="52.1"><title>2024-08-25 145.88 mins</title></rect><rect fill="#64bc69" height="4" rx="1" ry="1" width="4" x="193.6000000000001" y="19.7"><title>2024-08-26 105.67 mins</title></rect><rect fill="#64bc69" height="4" rx="1" ry="1" width="4" x="193.6000000000001" y="25.1"><title>2024-08-27 93.38 mins</title></rect><rect fill="#a1e2a3" height="4" rx="1" ry="1" width="4" x="193.6000000000001" y="30.5"><title>2024-08-28 57.9 mins</title></rect><rect fill="#a2e2a4" height="4" rx="1" ry="1" width="4" x="193.6000000000001" y="35.9"><title>2024-08-29 51.1 mins</title></rect><rect fill="#a0e1a2" height="4" rx="1" ry="1" width="4" x="193.6000000000001" y="41.300000000000004"><title>2024-08-30 59.82 mins</title></rect><rect fill="#a4e3a6" height="4" rx="1" ry="1" width="4" x="193.6000000000001" y="46.699999999999996"><title>2024-08-31 40.35 mins</title></rect><rect fill="#549F57" height="4" rx="1" ry="1" width="4" x="193.6000000000001" y="52.1"><title>2024-09-01 229.77 mins</title></rect><text fill="#000000" style="font-size:2.5px; font-family:Arial" x="199.0000000000001" y="18.3">Sep</text><rect fill="#a5e4a7" height="4" rx="1" ry="1" width="4" x="199.0000000000001" y="19.7"><title>2024-09-02 34.77 mins</title></rect><rect fill="#63bb68" height="4" rx="1" ry="1" width="4" x="199.0000000000001" y="25.1"><title>2024-09-03 118.28 mins</title></rect><rect fill="#65bd6a" height="4" rx="1" ry="1" width="4" x="199.0000000000001" y="30.5"><title>2024-09-04 78.95 mins</title></rect><rect fill="#549F57" height="4" rx="1" ry="1" width="4" x="199.0000000000001" y="35.9"><title>2024-09-05 180.45 mins</title></rect><rect fill="#549F57" height="4" rx="1" ry="1" width="4" x="199.0000000000001" y="41.300000000000004"><title>2024-09-06 190.73 mins</title></rect><rect fill="#a5e4a7" height="4" rx="1" ry="1" width="4" x="199.0000000000001" y="46.699999999999996"><title>2024-09-07 36.03 mins</title></rect><rect fill="#549F57" height="4" rx="1" ry="1" width="4" x="199.0000000000001" y="52.1"><title>2024-09-08 173.7 mins</title></rect><rect fill="#62ba67" height="4" rx="1" ry="1" width="4" x="204.40000000000012" y="19.7"><title>2024-09-09 144.63 mins</title></rect><rect fill="#63bb68" height="4" rx="1" ry="1" width="4" x="204.40000000000012" y="25.1"><title>2024-09-10 114.5 mins</title></rect><rect fill="#63bb67" height="4" rx="1" ry="1" width="4" x="204.40000000000012" y="30.5"><title>2024-09-11 126.5 mins</title></rect><rect fill="#63bb68" height="4" rx="1" ry="1" width="4" x="204.40000000000012" y="35.9"><title>2024-09-12 120.38 mins</title></rect><rect fill="#549F57" height="4" rx="1" ry="1" width="4" x="204.40000000000012" y="41.300000000000004"><title>2024-09-13 159.15 mins</title></rect><rect fill="#a4e3a6" height="4" rx="1" ry="1" width="4" x="204.40000000000012" y="46.699999999999996"><title>2024-09-14 42.3 mins</title></rect><rect fill="#abe7ad" height="4" rx="1" ry="1" width="4" x="204.40000000000012" y="52.1"><title>2024-09-15 4.37 mins</title></rect><rect fill="#a9e6ab" height="4" rx="1" ry="1" width="4" x="209.80000000000013" y="19.7"><title>2024-09-16 15.3 mins</title></rect><rect fill="#aae6ac" height="4" rx="1" ry="1" width="4" x="209.80000000000013" y="25.1"><title>2024-09-17 8.63 mins</title></rect><rect fill="#65bd6a" height="4" rx="1" ry="1" width="4" x="209.80000000000013" y="30.5"><title>2024-09-18 83.32 mins</title></rect><rect fill="#a6e4a9" height="4" rx="1" ry="1" width="4" x="209.80000000000013" y="35.9"><title>2024-09-19 28.0 mins</title></rect><rect fill="#a5e4a7" height="4" rx="1" ry="1" width="4" x="209.80000000000013" y="41.300000000000004"><title>2024-09-20 33.92 mins</title></rect><rect fill="#63bb67" height="4" rx="1" ry="1" width="4" x="209.80000000000013" y="46.699999999999996"><title>2024-09-21 127.37 mins</title></rect><rect fill="#64bc69" height="4" rx="1" ry="1" width="4" x="209.80000000000013" y="52.1"><title>2024-09-22 103.55 mins</title></rect><rect fill="#a8e5aa" height="4" rx="1" ry="1" width="4" x="215.20000000000013" y="19.7"><title>2024-09-23 18.52 mins</title></rect><rect fill="#a0e2a3" height="4" rx="1" ry="1" width="4" x="215.20000000000013" y="25.1"><title>2024-09-24 59.35 mins</title></rect><rect fill="#a1e2a4" height="4" rx="1" ry="1" width="4" x="215.20000000000013" y="30.5"><title>2024-09-25 53.85 mins</title></rect><rect fill="#a6e4a8" height="4" rx="1" ry="1" width="4" x="215.20000000000013" y="35.9"><title>2024-09-26 29.38 mins</title></rect><rect fill="#65bd69" height="4" rx="1" ry="1" width="4" x="215.20000000000013" y="41.300000000000004"><title>2024-09-27 86.78 mins</title></rect><rect fill="#a3e3a5" height="4" rx="1" ry="1" width="4" x="215.20000000000013" y="46.699999999999996"><title>2024-09-28 47.77 mins</title></rect><rect fill="#65bd6a" height="4" rx="1" ry="1" width="4" x="215.20000000000013" y="52.1"><title>2024-09-29 81.33 mins</title></rect><rect fill="#a4e3a6" height="4" rx="1" ry="1" width="4" x="220.60000000000014" y="19.7"><title>2024-09-30 42.55 mins</title></rect><rect fill="#a9e6ab" height="4" rx="1" ry="1" width="4" x="220.60000000000014" y="25.1"><title>2024-10-01 14.37 mins</title></rect><rect fill="#a9e6ab" height="4" rx="1" ry="1" width="4" x="220.60000000000014" y="30.5"><title>2024-10-02 15.28 mins</title></rect><rect fill="#a4e3a6" height="4" rx="1" ry="1" width="4" x="220.60000000000014" y="35.9"><title>2024-10-03 42.28 mins</title></rect><rect fill="#65bd6a" height="4" rx="1" ry="1" width="4" x="220.60000000000014" y="41.300000000000004"><title>2024-10-04 71.8 mins</title></rect><rect fill="#549F57" height="4" rx="1" ry="1" width="4" x="220.60000000000014" y="46.699999999999996"><title>2024-10-05 177.88 mins</title></rect><rect fill="#65bd69" height="4" rx="1" ry="1" width="4" x="220.60000000000014" y="52.1"><title>2024-10-06 87.75 mins</title></rect><text fill="#000000" style="font-size:2.5px; font-family:Arial" x="226.00000000000014" y="18.3">Oct</text><rect fill="#62ba67" height="4" rx="1" ry="1" width="4" x="226.00000000000014" y="19.7"><title>2024-10-07 138.12 mins</title></rect><rect fill="#66be6b" height="4" rx="1" ry="1" width="4" x="226.00000000000014" y="25.1"><title>2024-10-08 64.93 mins</title></rect><rect fill="#a5e4a7" height="4" rx="1" ry="1" width="4" x="226.00000000000014" y="30.5"><title>2024-10-09 35.38 mins</title></rect><rect fill="#63bb68" height="4" rx="1" ry="1" width="4" x="226.00000000000014" y="35.9"><title>2024-10-10 118.57 mins</title></rect><rect fill="#65bd6a" height="4" rx="1" ry="1" width="4" x="226.00000000000014" y="41.300000000000004"><title>2024-10-11 72.45 mins</title></rect><rect fill="#64bc69" height="4" rx="1" ry="1" width="4" x="226.00000000000014" y="46.699999999999996"><title>2024-10-12 92.4 mins</title></rect><rect fill="#66be6b" height="4" rx="1" ry="1" width="4" x="226.00000000000014" y="52.1"><title>2024-10-13 62.98 mins</title></rect><rect fill="#abe6ad" height="4" rx="1" ry="1" width="4" x="231.40000000000015" y="19.7"><title>2024-10-14 6.28 mins</title></rect><rect fill="#EBEDF0" height="4" rx="1" ry="1" width="4" x="231.40000000000015" y="25.1"><title>2024-10-15</title></rect><rect fill="#EBEDF0" height="4" rx="1" ry="1" width="4" x="231.40000000000015" y="30.5"><title>2024-10-16</title></rect><rect fill="#EBEDF0" height="4" rx="1" ry="1" width="4" x="231.40000000000015" y="35.9"><title>2024-10-17</title></rect><rect fill="#EBEDF0" height="4" rx="1" ry="1" width="4" x="231.40000000000015" y="41.300000000000004"><title>2024-10-18</title></rect><rect fill="#EBEDF0" height="4" rx="1" ry="1" width="4" x="231.40000000000015" y="46.699999999999996"><title>2024-10-19</title></rect><rect fill="#EBEDF0" height="4" rx="1" ry="1" width="4" x="231.40000000000015" y="52.1"><title>2024-10-20</title></rect><rect fill="#EBEDF0" height="4" rx="1" ry="1" width="4" x="236.80000000000015" y="19.7"><title>2024-10-21</title></rect><rect fill="#EBEDF0" height="4" rx="1" ry="1" width="4" x="236.80000000000015" y="25.1"><title>2024-10-22</title></rect><rect fill="#EBEDF0" height="4" rx="1" ry="1" width="4" x="236.80000000000015" y="30.5"><title>2024-10-23</title></rect><rect fill="#EBEDF0" height="4" rx="1" ry="1" width="4" x="236.80000000000015" y="35.9"><title>2024-10-24</title></rect><rect fill="#EBEDF0" height="4" rx="1" ry="1" width="4" x="236.80000000000015" y="41.300000000000004"><title>2024-10-25</title></rect><rect fill="#EBEDF0" height="4" rx="1" ry="1" width="4" x="236.80000000000015" y="46.699999999999996"><title>2024-10-26</title></rect><rect fill="#EBEDF0" height="4" rx="1" ry="1" width="4" x="236.80000000000015" y="52.1"><title>2024-10-27</title></rect><rect fill="#EBEDF0" height="4" rx="1" ry="1" width="4" x="242.20000000000016" y="19.7"><title>2024-10-28</title></rect><rect fill="#EBEDF0" height="4" rx="1" ry="1" width="4" x="242.20000000000016" y="25.1"><title>2024-10-29</title></rect><rect fill="#EBEDF0" height="4" rx="1" ry="1" width="4" x="242.20000000000016" y="30.5"><title>2024-10-30</title></rect><rect fill="#EBEDF0" height="4" rx="1" ry="1" width="4" x="242.20000000000016" y="35.9"><title>2024-10-31</title></rect><rect fill="#EBEDF0" height="4" rx="1" ry="1" width="4" x="242.20000000000016" y="41.300000000000004"><title>2024-11-01</title></rect><rect fill="#EBEDF0" height="4" rx="1" ry="1" width="4" x="242.20000000000016" y="46.699999999999996"><title>2024-11-02</title></rect><rect fill="#EBEDF0" height="4" rx="1" ry="1" width="4" x="242.20000000000016" y="52.1"><title>2024-11-03</title></rect><text fill="#000000" style="font-size:2.5px; font-family:Arial" x="247.60000000000016" y="18.3">Nov</text><rect fill="#EBEDF0" height="4" rx="1" ry="1" width="4" x="247.60000000000016" y="19.7"><title>2024-11-04</title></rect><rect fill="#EBEDF0" height="4" rx="1" ry="1" width="4" x="247.60000000000016" y="25.1"><title>2024-11-05</title></rect><rect fill="#EBEDF0" height="4" rx="1" ry="1" width="4" x="247.60000000000016" y="30.5"><title>2024-11-06</title></rect><rect fill="#EBEDF0" height="4" rx="1" ry="1" width="4" x="247.60000000000016" y="35.9"><title>2024-11-07</title></rect><rect fill="#EBEDF0" height="4" rx="1" ry="1" width="4" x="247.60000000000016" y="41.300000000000004"><title>2024-11-08</title></rect><rect fill="#EBEDF0" height="4" rx="1" ry="1" width="4" x="247.60000000000016" y="46.699999999999996"><title>2024-11-09</title></rect><rect fill="#EBEDF0" height="4" rx="1" ry="1" width="4" x="247.60000000000016" y="52.1"><title>2024-11-10</title></rect><rect fill="#EBEDF0" height="4" rx="1" ry="1" width="4" x="253.00000000000017" y="19.7"><title>2024-11-11</title></rect><rect fill="#EBEDF0" height="4" rx="1" ry="1" width="4" x="253.00000000000017" y="25.1"><title>2024-11-12</title></rect><rect fill="#EBEDF0" height="4" rx="1" ry="1" width="4" x="253.00000000000017" y="30.5"><title>2024-11-13</title></rect><rect fill="#EBEDF0" height="4" rx="1" ry="1" width="4" x="253.00000000000017" y="35.9"><title>2024-11-14</title></rect><rect fill="#EBEDF0" height="4" rx="1" ry="1" width="4" x="253.00000000000017" y="41.300000000000004"><title>2024-11-15</title></rect><rect fill="#EBEDF0" height="4" rx="1" ry="1" width="4" x="253.00000000000017" y="46.699999999999996"><title>2024-11-16</title></rect><rect fill="#EBEDF0" height="4" rx="1" ry="1" width="4" x="253.00000000000017" y="52.1"><title>2024-11-17</title></rect><rect fill="#EBEDF0" height="4" rx="1" ry="1" width="4" x="258.40000000000015" y="19.7"><title>2024-11-18</title></rect><rect fill="#EBEDF0" height="4" rx="1" ry="1" width="4" x="258.40000000000015" y="25.1"><title>2024-11-19</title></rect><rect fill="#EBEDF0" height="4" rx="1" ry="1" width="4" x="258.40000000000015" y="30.5"><title>2024-11-20</title></rect><rect fill="#EBEDF0" height="4" rx="1" ry="1" width="4" x="258.40000000000015" y="35.9"><title>2024-11-21</title></rect><rect fill="#EBEDF0" height="4" rx="1" ry="1" width="4" x="258.40000000000015" y="41.300000000000004"><title>2024-11-22</title></rect><rect fill="#EBEDF0" height="4" rx="1" ry="1" width="4" x="258.40000000000015" y="46.699999999999996"><title>2024-11-23</title></rect><rect fill="#EBEDF0" height="4" rx="1" ry="1" width="4" x="258.40000000000015" y="52.1"><title>2024-11-24</title></rect><rect fill="#EBEDF0" height="4" rx="1" ry="1" width="4" x="263.8000000000001" y="19.7"><title>2024-11-25</title></rect><rect fill="#EBEDF0" height="4" rx="1" ry="1" width="4" x="263.8000000000001" y="25.1"><title>2024-11-26</title></rect><rect fill="#EBEDF0" height="4" rx="1" ry="1" width="4" x="263.8000000000001" y="30.5"><title>2024-11-27</title></rect><rect fill="#EBEDF0" height="4" rx="1" ry="1" width="4" x="263.8000000000001" y="35.9"><title>2024-11-28</title></rect><rect fill="#EBEDF0" height="4" rx="1" ry="1" width="4" x="263.8000000000001" y="41.300000000000004"><title>2024-11-29</title></rect><rect fill="#EBEDF0" height="4" rx="1" ry="1" width="4" x="263.8000000000001" y="46.699999999999996"><title>2024-11-30</title></rect><rect fill="#EBEDF0" height="4" rx="1" ry="1" width="4" x="263.8000000000001" y="52.1"><title>2024-12-01</title></rect><text fill="#000000" style="font-size:2.5px; font-family:Arial" x="269.2000000000001" y="18.3">Dec</text><rect fill="#EBEDF0" height="4" rx="1" ry="1" width="4" x="269.2000000000001" y="19.7"><title>2024-12-02</title></rect><rect fill="#EBEDF0" height="4" rx="1" ry="1" width="4" x="269.2000000000001" y="25.1"><title>2024-12-03</title></rect><rect fill="#EBEDF0" height="4" rx="1" ry="1" width="4" x="269.2000000000001" y="30.5"><title>2024-12-04</title></rect><rect fill="#EBEDF0" height="4" rx="1" ry="1" width="4" x="269.2000000000001" y="35.9"><title>2024-12-05</title></rect><rect fill="#EBEDF0" height="4" rx="1" ry="1" width="4" x="269.2000000000001" y="41.300000000000004"><title>2024-12-06</title></rect><rect fill="#EBEDF0" height="4" rx="1" ry="1" width="4" x="269.2000000000001" y="46.699999999999996"><title>2024-12-07</title></rect><rect fill="#EBEDF0" height="4" rx="1" ry="1" width="4" x="269.2000000000001" y="52.1"><title>2024-12-08</title></rect><rect fill="#EBEDF0" height="4" rx="1" ry="1" width="4" x="274.6000000000001" y="19.7"><title>2024-12-09</title></rect><rect fill="#EBEDF0" height="4" rx="1" ry="1" width="4" x="274.6000000000001" y="25.1"><title>2024-12-10</title></rect><rect fill="#EBEDF0" height="4" rx="1" ry="1" width="4" x="274.6000000000001" y="30.5"><title>2024-12-11</title></rect><rect fill="#EBEDF0" height="4" rx="1" ry="1" width="4" x="274.6000000000001" y="35.9"><title>2024-12-12</title></rect><rect fill="#EBEDF0" height="4" rx="1" ry="1" width="4" x="274.6000000000001" y="41.300000000000004"><title>2024-12-13</title></rect><rect fill="#EBEDF0" height="4" rx="1" ry="1" width="4" x="274.6000000000001" y="46.699999999999996"><title>2024-12-14</title></rect><rect fill="#EBEDF0" height="4" rx="1" ry="1" width="4" x="274.6000000000001" y="52.1"><title>2024-12-15</title></rect><rect fill="#EBEDF0" height="4" rx="1" ry="1" width="4" x="280.00000000000006" y="19.7"><title>2024-12-16</title></rect><rect fill="#EBEDF0" height="4" rx="1" ry="1" width="4" x="280.00000000000006" y="25.1"><title>2024-12-17</title></rect><rect fill="#EBEDF0" height="4" rx="1" ry="1" width="4" x="280.00000000000006" y="30.5"><title>2024-12-18</title></rect><rect fill="#EBEDF0" height="4" rx="1" ry="1" width="4" x="280.00000000000006" y="35.9"><title>2024-12-19</title></rect><rect fill="#EBEDF0" height="4" rx="1" ry="1" width="4" x="280.00000000000006" y="41.300000000000004"><title>2024-12-20</title></rect><rect fill="#EBEDF0" height="4" rx="1" ry="1" width="4" x="280.00000000000006" y="46.699999999999996"><title>2024-12-21</title></rect><rect fill="#EBEDF0" height="4" rx="1" ry="1" width="4" x="280.00000000000006" y="52.1"><title>2024-12-22</title></rect><rect fill="#EBEDF0" height="4" rx="1" ry="1" width="4" x="285.40000000000003" y="19.7"><title>2024-12-23</title></rect><rect fill="#EBEDF0" height="4" rx="1" ry="1" width="4" x="285.40000000000003" y="25.1"><title>2024-12-24</title></rect><rect fill="#EBEDF0" height="4" rx="1" ry="1" width="4" x="285.40000000000003" y="30.5"><title>2024-12-25</title></rect><rect fill="#EBEDF0" height="4" rx="1" ry="1" width="4" x="285.40000000000003" y="35.9"><title>2024-12-26</title></rect><rect fill="#EBEDF0" height="4" rx="1" ry="1" width="4" x="285.40000000000003" y="41.300000000000004"><title>2024-12-27</title></rect><rect fill="#EBEDF0" height="4" rx="1" ry="1" width="4" x="285.40000000000003" y="46.699999999999996"><title>2024-12-28</title></rect><rect fill="#EBEDF0" height="4" rx="1" ry="1" width="4" x="285.40000000000003" y="52.1"><title>2024-12-29</title></rect><rect fill="#EBEDF0" height="4" rx="1" ry="1" width="4" x="290.8" y="19.7"><title>2024-12-30</title></rect><rect fill="#EBEDF0" height="4" rx="1" ry="1" width="4" x="290.8" y="25.1"><title>2024-12-31</title></rect></svg>